<svg width="29" height="30" viewBox="0 0 29 30" fill="none" xmlns="http://www.w3.org/2000/svg">
<path fill-rule="evenodd" clip-rule="evenodd" d="M23.9489 5.01011C21.3176 2.37579 17.8183 0.924397 14.0904 0.922852C6.40852 0.922852 0.156612 7.17459 0.153522 14.8585C0.152493 17.3148 0.794163 19.7126 2.01382 21.8261L0.0366211 29.0478L7.42475 27.1098C9.46049 28.2203 11.7523 28.8055 14.0847 28.8061H14.0905C21.7715 28.8061 28.0241 22.5539 28.027 14.8696C28.0286 11.1456 26.5803 7.64425 23.9489 5.01011ZM14.0904 26.4525H14.0856C12.0071 26.4516 9.9686 25.8931 8.18985 24.8379L7.76705 24.5867L3.38282 25.7368L4.55303 21.4623L4.27751 21.0241C3.11794 19.1797 2.50563 17.048 2.50666 14.8594C2.50906 8.47269 7.70559 3.27667 14.095 3.27667C17.189 3.2777 20.0975 4.48414 22.2844 6.67368C24.4714 8.86322 25.6751 11.7736 25.6741 14.8688C25.6713 21.256 20.4751 26.4525 14.0904 26.4525ZM20.4442 17.7769C20.0961 17.6025 18.384 16.7603 18.0647 16.6439C17.7457 16.5277 17.5133 16.4699 17.2814 16.8183C17.0491 17.1668 16.3819 17.9513 16.1786 18.1836C15.9754 18.416 15.7725 18.4452 15.4242 18.2708C15.0759 18.0965 13.9539 17.7287 12.6237 16.5423C11.5886 15.619 10.8897 14.4786 10.6865 14.1301C10.4836 13.7813 10.6848 13.611 10.8393 13.4195C11.2162 12.9513 11.5937 12.4606 11.7098 12.2283C11.826 11.9959 11.7678 11.7924 11.6806 11.6182C11.5937 11.444 10.8973 9.72994 10.6072 9.03248C10.3243 8.35373 10.0374 8.44539 9.82355 8.43475C9.62065 8.42462 9.38839 8.42256 9.15613 8.42256C8.92404 8.42256 8.54673 8.5096 8.22744 8.85841C7.90832 9.20706 7.00882 10.0494 7.00882 11.7634C7.00882 13.4775 8.25663 15.1333 8.43069 15.3658C8.60475 15.5982 10.8863 19.1155 14.3794 20.6237C15.2103 20.9829 15.8588 21.1969 16.3647 21.3574C17.199 21.6225 17.9579 21.585 18.558 21.4954C19.2272 21.3954 20.6181 20.6529 20.9086 19.8396C21.1987 19.0261 21.1987 18.329 21.1115 18.1836C21.0246 18.0383 20.7924 17.9513 20.4442 17.7769Z" fill="#4ED184"/>
</svg>
