<svg width="12" height="8" viewBox="0 0 12 8" fill="none" xmlns="http://www.w3.org/2000/svg">
<path d="M9.90676 0.411743H2.09324C1.78704 0.411743 1.63393 0.411743 1.54064 0.434465C1.04082 0.556199 0.784154 1.11123 1.01511 1.5709C1.05821 1.6567 1.15737 1.77336 1.35569 2.00667L5.26244 6.60285C5.37929 6.74032 5.43771 6.80905 5.49425 6.85518C5.78864 7.09538 6.21136 7.09538 6.50575 6.85518C6.56229 6.80905 6.62071 6.74031 6.73756 6.60285L10.6443 2.00667C10.8426 1.77336 10.9418 1.6567 10.9849 1.5709C11.2158 1.11123 10.9592 0.556199 10.4594 0.434465C10.3661 0.411743 10.213 0.411743 9.90676 0.411743Z" fill="black"/>
</svg>
