<svg width="1920" height="1344" viewBox="0 0 1920 1344" fill="none" xmlns="http://www.w3.org/2000/svg">
<circle cx="-20.5" cy="988.5" r="170.5" fill="#EBF6FF"/>
<circle cx="150.5" cy="70.5" r="70.5" fill="#EBF6FF"/>
<circle cx="9.5" cy="423.5" r="48.5" fill="#EBF6FF"/>
<circle cx="1846.5" cy="904.5" r="48.5" fill="#EBF6FF"/>
<circle cx="1851.5" cy="228.5" r="133.5" fill="#EBF6FF"/>
<circle cx="1679.5" cy="1232.5" r="22.5" fill="#EBF6FF"/>
<circle cx="1868.5" cy="1293.5" r="22.5" fill="#EBF6FF"/>
<circle cx="157.5" cy="1313.5" r="22.5" fill="#EBF6FF"/>
<path d="M1784.41 170.599C1784.63 170.415 1784.92 170.354 1785.19 170.439L1807.75 177.557C1808.16 177.688 1808.27 178.1 1808.12 178.5C1807.98 178.9 1807.65 179.137 1807.24 179.007L1789.18 173.308L1812.2 188.157L1821.05 183.367L1807.24 179.007C1806.82 178.876 1806.6 178.446 1806.75 178.046C1806.89 177.646 1807.34 177.427 1807.75 177.557L1823.27 182.453C1823.56 182.547 1823.77 182.801 1823.8 183.102C1823.82 183.402 1823.66 183.692 1823.39 183.841L1812.82 189.561L1809.7 199.314C1809.69 199.324 1809.69 199.333 1809.69 199.341C1809.63 199.492 1809.53 199.627 1809.39 199.722C1809.3 199.782 1809.2 199.823 1809.1 199.845C1808.9 199.887 1808.69 199.856 1808.51 199.749L1801.65 195.606L1791.56 201.064C1791.49 201.101 1791.42 201.128 1791.34 201.145C1791.18 201.18 1791 201.164 1790.85 201.097C1790.62 200.999 1790.46 200.802 1790.4 200.566L1784.16 171.329C1784.1 171.062 1784.2 170.783 1784.41 170.599ZM1807.9 191.091C1808.01 191.197 1808.09 191.334 1808.12 191.485L1809.1 196.036L1811.23 189.376L1792.99 177.619L1807.9 191.091ZM1807.79 197.499L1806.79 192.822L1803.23 194.749L1807.79 197.499ZM1791.74 199.229L1806.02 191.503L1786.28 173.654L1791.74 199.229Z" fill="#90CCEC"/>
<path d="M-6.58821 404.599C-6.37469 404.415 -6.07682 404.354 -5.80821 404.439L16.7506 411.557C17.1638 411.688 17.2663 412.1 17.1239 412.5C16.9816 412.9 16.6483 413.137 16.235 413.007L-1.8235 407.308L21.2018 422.157L30.053 417.367L16.235 413.007C15.8218 412.876 15.6022 412.446 15.7446 412.046C15.8869 411.646 16.3373 411.427 16.7506 411.557L32.2648 416.453C32.5612 416.547 32.7695 416.801 32.7956 417.102C32.8218 417.402 32.6611 417.692 32.3858 417.841L21.8152 423.561L18.6962 433.314C18.6929 433.324 18.6892 433.333 18.6851 433.341C18.6305 433.492 18.5292 433.627 18.3874 433.722C18.2986 433.782 18.2006 433.823 18.0992 433.845C17.9005 433.887 17.6892 433.856 17.5119 433.749L10.6447 429.606L0.558366 435.064C0.488595 435.101 0.414535 435.128 0.338559 435.145C0.174512 435.18 0.00180088 435.164 -0.153737 435.097C-0.381326 434.999 -0.545334 434.802 -0.595712 434.566L-6.8413 405.329C-6.89837 405.062 -6.80175 404.783 -6.58821 404.599ZM16.8955 425.091C17.0118 425.197 17.0915 425.334 17.1239 425.485L18.096 430.036L20.2259 423.376L1.99404 411.619L16.8955 425.091ZM16.7872 431.499L15.7882 426.822L12.2283 428.749L16.7872 431.499ZM0.740022 433.229L15.0187 425.503L-4.72334 407.654L0.740022 433.229Z" fill="#90CCEC"/>
<path d="M51.4118 977.599C51.6253 977.415 51.9232 977.354 52.1918 977.439L74.7506 984.557C75.1638 984.688 75.2663 985.1 75.1239 985.5C74.9816 985.9 74.6483 986.137 74.235 986.007L56.1765 980.308L79.2018 995.157L88.053 990.367L74.235 986.007C73.8218 985.876 73.6022 985.446 73.7446 985.046C73.8869 984.646 74.3373 984.427 74.7506 984.557L90.2648 989.453C90.5612 989.547 90.7695 989.801 90.7956 990.102C90.8218 990.402 90.6611 990.692 90.3858 990.841L79.8152 996.561L76.6962 1006.31C76.6929 1006.32 76.6892 1006.33 76.6851 1006.34C76.6305 1006.49 76.5292 1006.63 76.3874 1006.72C76.2986 1006.78 76.2006 1006.82 76.0992 1006.85C75.9005 1006.89 75.6892 1006.86 75.5119 1006.75L68.6447 1002.61L58.5584 1008.06C58.4886 1008.1 58.4145 1008.13 58.3386 1008.14C58.1745 1008.18 58.0018 1008.16 57.8463 1008.1C57.6187 1008 57.4547 1007.8 57.4043 1007.57L51.1587 978.329C51.1016 978.062 51.1983 977.783 51.4118 977.599ZM74.8955 998.091C75.0118 998.197 75.0915 998.334 75.1239 998.485L76.096 1003.04L78.2259 996.376L59.994 984.619L74.8955 998.091ZM74.7872 1004.5L73.7882 999.822L70.2283 1001.75L74.7872 1004.5ZM58.74 1006.23L73.0187 998.503L53.2767 980.654L58.74 1006.23Z" fill="#90CCEC"/>
<path d="M156.991 1313.78C156.843 1313.55 156.583 1313.42 156.31 1313.44L133.46 1314.83C133.041 1314.86 132.836 1315.23 132.86 1315.65C132.885 1316.07 133.131 1316.38 133.549 1316.35L151.841 1315.23L126.482 1323.95L119.553 1317.21L133.549 1316.35C133.968 1316.33 134.287 1315.97 134.263 1315.55C134.238 1315.13 133.879 1314.81 133.46 1314.83L117.745 1315.79C117.445 1315.81 117.183 1316.01 117.078 1316.29C116.973 1316.57 117.045 1316.89 117.26 1317.1L125.535 1325.15L125.811 1335.28C125.811 1335.29 125.812 1335.3 125.814 1335.31C125.824 1335.47 125.882 1335.62 125.988 1335.75C126.054 1335.83 126.134 1335.89 126.222 1335.93C126.395 1336.02 126.6 1336.04 126.793 1335.98L134.28 1333.66L142.176 1341.34C142.231 1341.4 142.292 1341.44 142.358 1341.47C142.501 1341.55 142.666 1341.57 142.828 1341.55C143.066 1341.51 143.271 1341.36 143.381 1341.14L157.03 1314.54C157.155 1314.3 157.14 1314.01 156.991 1313.78ZM129.691 1327.81C129.554 1327.88 129.444 1328 129.373 1328.13L127.248 1332.27L127.06 1325.36L147.14 1318.46L129.691 1327.81ZM128.07 1334L130.254 1329.74L133.04 1332.45L128.07 1334ZM142.5 1339.53L131.322 1328.66L154.44 1316.27L142.5 1339.53Z" fill="#90CCEC"/>
<path d="M173.949 105.056C174.085 104.82 174.084 104.529 173.946 104.294L162.351 84.5547C162.139 84.1931 161.715 84.1779 161.352 84.3897C160.99 84.6015 160.826 84.9601 161.038 85.3218L170.32 101.123L151.064 82.4621L153.936 73.2307L161.038 85.3218C161.251 85.6834 161.717 85.8048 162.079 85.5929C162.442 85.3812 162.564 84.9163 162.351 84.5547L154.377 70.9794C154.225 70.72 153.933 70.5747 153.634 70.6091C153.334 70.6435 153.083 70.8509 152.994 71.138L149.564 82.1625L140.658 86.9964C140.649 87.0014 140.641 87.0066 140.634 87.012C140.498 87.0927 140.386 87.2141 140.322 87.3657C140.281 87.4606 140.261 87.5605 140.261 87.6597C140.26 87.8542 140.334 88.046 140.476 88.1911L145.939 93.8127L142.666 104.332C142.644 104.405 142.632 104.48 142.632 104.554C142.632 104.715 142.682 104.873 142.78 105.006C142.922 105.2 143.149 105.315 143.39 105.316L173.287 105.437C173.56 105.438 173.813 105.293 173.949 105.056ZM149.075 87.0717C148.949 86.9833 148.798 86.9356 148.643 86.935L143.989 86.9162L150.071 83.6154L165.318 98.3918L149.075 87.0717ZM142.826 88.4291L147.608 88.4484L146.453 92.1612L142.826 88.4291ZM144.424 103.803L149.058 88.9107L170.577 103.908L144.424 103.803Z" fill="#90CCEC"/>
<path d="M1833.48 925.905C1833.26 925.726 1833.15 925.443 1833.19 925.164L1836.35 901.721C1836.41 901.291 1836.58 900.928 1837 901C1837.42 901.072 1837.92 901.552 1837.87 901.981L1835.34 920.748L1846.03 895.525L1839.8 887.622L1837.87 901.981C1837.81 902.411 1837.42 901.072 1837 901C1836.58 900.928 1836.29 902.15 1836.35 901.721L1838.53 885.599C1838.57 885.291 1838.78 885.042 1839.07 884.965C1839.37 884.888 1839.68 884.997 1839.87 885.242L1847.31 894.681L1857.46 896.089C1857.47 896.091 1857.48 896.093 1857.48 896.096C1857.64 896.124 1857.79 896.2 1857.91 896.324C1857.99 896.401 1858.04 896.491 1858.08 896.587C1858.16 896.775 1858.16 896.989 1858.09 897.182L1855.18 904.656L1862.28 913.662C1862.33 913.724 1862.36 913.793 1862.39 913.865C1862.46 914.021 1862.47 914.193 1862.43 914.358C1862.37 914.599 1862.21 914.794 1861.98 914.884L1834.24 926.03C1833.99 926.132 1833.7 926.084 1833.48 925.905ZM1849.66 899.267C1849.75 899.135 1849.87 899.033 1850.01 898.975L1854.33 897.24L1847.4 896.279L1838.93 916.25L1849.66 899.267ZM1855.99 898.28L1851.56 900.063L1854.06 903.242L1855.99 898.28ZM1860.44 913.796L1850.39 901.046L1836.17 923.546L1860.44 913.796Z" fill="#90CCEC"/>
</svg>
